<svg width="26" height="26" viewBox="0 0 31 31" fill="none" xmlns="http://www.w3.org/2000/svg">
<circle cx="15.5" cy="15.5" r="14.5" fill="url(#paint0_linear_402_19)" stroke="#3778EF" stroke-width="2"/>
<path d="M20.7847 12.5938L23.1636 14.7679C23.451 15.0343 23.369 15.2397 22.9792 15.2397H21.1948V20.9202C21.1948 21.3101 20.8667 21.6585 20.4769 21.6585H17.38V17.6797C17.38 17.2899 17.0316 16.9414 16.6418 16.9414H14.6933C14.3035 16.9414 13.9551 17.2899 13.9551 17.6797V21.6585H10.8582C10.4684 21.6585 10.1199 21.3101 10.1199 20.9202V15.2397H8.35594C7.96613 15.2397 7.8841 15.0343 8.17153 14.7679L15.1238 8.4515C15.4113 8.18506 15.9035 8.18506 16.2106 8.4515L17.7895 9.86637V8.73828C17.7895 8.34847 18.138 8 18.5278 8H20.0661C20.4559 8 20.784 8.34847 20.784 8.73828L20.7847 12.5938Z" fill="white"/>
<defs>
<linearGradient id="paint0_linear_402_19" x1="11" y1="9.5" x2="15" y2="28" gradientUnits="userSpaceOnUse">
<stop offset="0.121598" stop-color="#CDDAF4"/>
<stop offset="0.419532" stop-color="#598FF4"/>
<stop offset="0.809506" stop-color="#8EADE8"/>
</linearGradient>
</defs>
</svg>
